<svg aria-hidden="true" width="0" height="0" style="position:absolute"><symbol overflow="visible" viewBox="0 0 341.59 203.057" id="British_Flag_clip_art" xmlns="http://www.w3.org/2000/svg"><switch><g><path fill="#FFF" d="M.063 0H341.53v202.167H.063z"/><path fill="#13135F" d="M.063 20v56.5h96z"/><path fill="red" d="M109.911 76.5h19.652L.063 0v12z"/><path fill="#12145B" d="M37.916 0l109.647 67.486V0z"/><path fill="#13135F" d="M341.563 182v-56h-95z"/><path fill="red" d="M232.715 126h-19.652l128.5 76.125V190z"/><path fill="#12145B" d="M304.681 203l-109.646-67.486V203z"/><path fill="#13135F" d="M341.563 20.513V76.5l-95-.068z"/><path fill="red" d="M195.063 76.5h22.298L341.563 0h-22.554z"/><path fill="#12145B" d="M303.75 0L195.063 66.986V0z"/><path fill="#13135F" d="M.071 182.481v-56.5h96z"/><path fill="red" d="M147.517 125.969h-22.299L0 203.057h22.572z"/><path fill="#12145B" d="M37.87 202.969l109.647-67.486v67.486z"/><path fill="red" d="M156.717 0h28.874v203h-28.874z"/><path fill="red" d="M.063 85.252H341.59v32.672H.063z"/></g></switch></symbol></svg>