<svg aria-hidden="true" width="0" height="0" style="position:absolute"><symbol viewBox="0 0 32 32" id="cool2" xmlns="http://www.w3.org/2000/svg"><path d="M16 0C7.163 0 0 7.163 0 16s7.163 16 16 16 16-7.163 16-16S24.837 0 16 0zm0 26a9.953 9.953 0 01-4.236-.94l1.036-1.727a7.995 7.995 0 0010.06-3.217l1.715 1.029A9.996 9.996 0 0115.999 26zm10-14c0 1.1-.9 2-2 2h-4c-1.1 0-2-.9-2-2h-4c0 1.1-.9 2-2 2H8c-1.1 0-2-.9-2-2V9c0-.55.45-1 1-1h6c.55 0 1 .45 1 1v1h4V9c0-.55.45-1 1-1h6c.55 0 1 .45 1 1v3z"/></symbol></svg>